<mxfile host="Electron" modified="2023-04-22T12:15:12.160Z" agent="Mozilla/5.0 (Windows NT 10.0; Win64; x64) AppleWebKit/537.36 (KHTML, like Gecko) draw.io/21.2.1 Chrome/112.0.5615.87 Electron/24.1.2 Safari/537.36" etag="qTxywH5072vIyAxcshbv" version="21.2.1" type="device">
  <diagram name="Page-1" id="90a13364-a465-7bf4-72fc-28e22215d7a0">
    <mxGraphModel dx="2440" dy="984" grid="1" gridSize="10" guides="1" tooltips="1" connect="1" arrows="1" fold="1" page="1" pageScale="1.5" pageWidth="1169" pageHeight="826" background="none" math="0" shadow="1">
      <root>
        <mxCell id="0" style=";html=1;" />
        <mxCell id="1" style=";html=1;" parent="0" />
        <mxCell id="l3dyAakRDhR8vBtT_rwc-2" value="Memory Bus" style="rounded=0;whiteSpace=wrap;html=1;fillColor=#d5e8d4;strokeColor=#82b366;fontStyle=1;labelBackgroundColor=none;labelBorderColor=none;horizontal=1;fontSize=19;shadow=0;glass=0;strokeWidth=2;" vertex="1" parent="1">
          <mxGeometry x="210" y="210" width="1150" height="80" as="geometry" />
        </mxCell>
        <mxCell id="l3dyAakRDhR8vBtT_rwc-32" style="edgeStyle=orthogonalEdgeStyle;orthogonalLoop=1;jettySize=auto;html=1;exitX=0.5;exitY=0;exitDx=0;exitDy=0;curved=1;shape=flexArrow;fillColor=#fff2cc;strokeColor=#d6b656;endWidth=28;endSize=8;startArrow=block;" edge="1" parent="1" source="l3dyAakRDhR8vBtT_rwc-5">
          <mxGeometry relative="1" as="geometry">
            <mxPoint x="430" y="293" as="targetPoint" />
            <Array as="points">
              <mxPoint x="430" y="293" />
            </Array>
          </mxGeometry>
        </mxCell>
        <mxCell id="l3dyAakRDhR8vBtT_rwc-37" style="edgeStyle=orthogonalEdgeStyle;shape=flexArrow;rounded=0;orthogonalLoop=1;jettySize=auto;html=1;exitX=0;exitY=0.5;exitDx=0;exitDy=0;entryX=1.011;entryY=0.311;entryDx=0;entryDy=0;entryPerimeter=0;endArrow=block;startArrow=block;fillColor=#fff2cc;strokeColor=#d6b656;" edge="1" parent="1" source="l3dyAakRDhR8vBtT_rwc-5" target="l3dyAakRDhR8vBtT_rwc-35">
          <mxGeometry relative="1" as="geometry" />
        </mxCell>
        <mxCell id="l3dyAakRDhR8vBtT_rwc-39" style="edgeStyle=orthogonalEdgeStyle;shape=flexArrow;rounded=0;orthogonalLoop=1;jettySize=auto;html=1;entryX=0.161;entryY=-0.012;entryDx=0;entryDy=0;entryPerimeter=0;fillColor=#fff2cc;strokeColor=#d6b656;startArrow=block;endArrow=none;endFill=0;" edge="1" parent="1" source="l3dyAakRDhR8vBtT_rwc-5" target="l3dyAakRDhR8vBtT_rwc-38">
          <mxGeometry relative="1" as="geometry" />
        </mxCell>
        <mxCell id="l3dyAakRDhR8vBtT_rwc-5" value="64k&amp;nbsp; Memory" style="rounded=0;whiteSpace=wrap;html=1;fillColor=#f5f5f5;fontColor=#333333;strokeColor=#666666;fontSize=15;" vertex="1" parent="1">
          <mxGeometry x="320" y="430" width="220" height="260" as="geometry" />
        </mxCell>
        <mxCell id="l3dyAakRDhR8vBtT_rwc-35" value="Main Bus" style="rounded=0;whiteSpace=wrap;html=1;horizontal=0;fontSize=19;fontStyle=1;fillColor=#f8cecc;strokeColor=#b85450;strokeWidth=2;" vertex="1" parent="1">
          <mxGeometry x="80" y="340" width="90" height="710" as="geometry" />
        </mxCell>
        <mxCell id="l3dyAakRDhR8vBtT_rwc-38" value="address bus" style="rounded=0;whiteSpace=wrap;html=1;fillColor=#ffe6cc;strokeColor=#d79b00;strokeWidth=2;fontSize=19;fontStyle=1" vertex="1" parent="1">
          <mxGeometry x="200" y="1080" width="1430" height="80" as="geometry" />
        </mxCell>
        <mxCell id="l3dyAakRDhR8vBtT_rwc-41" value="" style="endArrow=none;html=1;rounded=0;endFill=0;startArrow=async;startFill=1;" edge="1" parent="1">
          <mxGeometry width="50" height="50" relative="1" as="geometry">
            <mxPoint x="540" y="444.76" as="sourcePoint" />
            <mxPoint x="600" y="444.76" as="targetPoint" />
          </mxGeometry>
        </mxCell>
        <mxCell id="l3dyAakRDhR8vBtT_rwc-42" value="assert main-bus" style="text;html=1;align=left;verticalAlign=middle;resizable=0;points=[];autosize=1;strokeColor=none;fillColor=none;" vertex="1" parent="1">
          <mxGeometry x="610" y="430" width="110" height="30" as="geometry" />
        </mxCell>
        <mxCell id="l3dyAakRDhR8vBtT_rwc-43" value="" style="endArrow=none;html=1;rounded=0;endFill=0;startArrow=async;startFill=1;fontStyle=1" edge="1" parent="1">
          <mxGeometry width="50" height="50" relative="1" as="geometry">
            <mxPoint x="540" y="464.76" as="sourcePoint" />
            <mxPoint x="600" y="464.76" as="targetPoint" />
          </mxGeometry>
        </mxCell>
        <mxCell id="l3dyAakRDhR8vBtT_rwc-44" value="write main-bus" style="text;html=1;align=left;verticalAlign=middle;resizable=0;points=[];autosize=1;strokeColor=none;fillColor=none;" vertex="1" parent="1">
          <mxGeometry x="610" y="450" width="100" height="30" as="geometry" />
        </mxCell>
        <mxCell id="l3dyAakRDhR8vBtT_rwc-45" value="clk" style="text;html=1;align=left;verticalAlign=middle;resizable=0;points=[];autosize=1;strokeColor=none;fillColor=none;" vertex="1" parent="1">
          <mxGeometry x="610" y="470" width="40" height="30" as="geometry" />
        </mxCell>
        <mxCell id="l3dyAakRDhR8vBtT_rwc-46" value="" style="endArrow=none;html=1;rounded=0;endFill=0;startArrow=async;startFill=1;" edge="1" parent="1">
          <mxGeometry width="50" height="50" relative="1" as="geometry">
            <mxPoint x="540" y="484.76" as="sourcePoint" />
            <mxPoint x="600" y="484.76" as="targetPoint" />
          </mxGeometry>
        </mxCell>
        <mxCell id="l3dyAakRDhR8vBtT_rwc-55" style="edgeStyle=orthogonalEdgeStyle;shape=flexArrow;rounded=0;orthogonalLoop=1;jettySize=auto;html=1;entryX=0.577;entryY=1.046;entryDx=0;entryDy=0;entryPerimeter=0;fillColor=#fff2cc;strokeColor=#d6b656;" edge="1" parent="1" source="l3dyAakRDhR8vBtT_rwc-47" target="l3dyAakRDhR8vBtT_rwc-2">
          <mxGeometry relative="1" as="geometry" />
        </mxCell>
        <mxCell id="l3dyAakRDhR8vBtT_rwc-47" value="32-64k EEPROM" style="rounded=1;whiteSpace=wrap;html=1;fillColor=#dae8fc;strokeColor=#6c8ebf;" vertex="1" parent="1">
          <mxGeometry x="807" y="510" width="133" height="180" as="geometry" />
        </mxCell>
        <mxCell id="l3dyAakRDhR8vBtT_rwc-52" style="edgeStyle=orthogonalEdgeStyle;shape=flexArrow;rounded=0;orthogonalLoop=1;jettySize=auto;html=1;exitX=0;exitY=0.5;exitDx=0;exitDy=0;entryX=1;entryY=0.149;entryDx=0;entryDy=0;entryPerimeter=0;shadow=0;fillColor=#f5f5f5;strokeColor=#666666;" edge="1" parent="1" source="l3dyAakRDhR8vBtT_rwc-48">
          <mxGeometry relative="1" as="geometry">
            <mxPoint x="940" y="659.8" as="targetPoint" />
          </mxGeometry>
        </mxCell>
        <mxCell id="l3dyAakRDhR8vBtT_rwc-54" value="" style="edgeStyle=orthogonalEdgeStyle;shape=flexArrow;rounded=0;orthogonalLoop=1;jettySize=auto;html=1;entryX=0.608;entryY=-0.01;entryDx=0;entryDy=0;entryPerimeter=0;fillColor=#fff2cc;strokeColor=#d6b656;" edge="1" parent="1" source="l3dyAakRDhR8vBtT_rwc-48" target="l3dyAakRDhR8vBtT_rwc-38">
          <mxGeometry relative="1" as="geometry">
            <mxPoint x="1070" y="710" as="targetPoint" />
          </mxGeometry>
        </mxCell>
        <mxCell id="l3dyAakRDhR8vBtT_rwc-48" value="16bit Counter" style="rounded=1;whiteSpace=wrap;html=1;fillColor=#e1d5e7;strokeColor=#9673a6;" vertex="1" parent="1">
          <mxGeometry x="1010" y="630" width="120" height="60" as="geometry" />
        </mxCell>
        <mxCell id="l3dyAakRDhR8vBtT_rwc-56" value="MW" style="text;html=1;align=left;verticalAlign=middle;resizable=0;points=[];autosize=1;strokeColor=none;fillColor=none;" vertex="1" parent="1">
          <mxGeometry x="610" y="490" width="40" height="30" as="geometry" />
        </mxCell>
        <mxCell id="l3dyAakRDhR8vBtT_rwc-57" value="MW-E" style="text;html=1;align=left;verticalAlign=middle;resizable=0;points=[];autosize=1;strokeColor=none;fillColor=none;" vertex="1" parent="1">
          <mxGeometry x="610" y="510" width="60" height="30" as="geometry" />
        </mxCell>
        <mxCell id="l3dyAakRDhR8vBtT_rwc-59" value="" style="endArrow=none;html=1;rounded=0;endFill=0;startArrow=async;startFill=1;" edge="1" parent="1">
          <mxGeometry width="50" height="50" relative="1" as="geometry">
            <mxPoint x="540" y="504.83000000000004" as="sourcePoint" />
            <mxPoint x="600" y="504.83000000000004" as="targetPoint" />
          </mxGeometry>
        </mxCell>
        <mxCell id="l3dyAakRDhR8vBtT_rwc-60" value="" style="endArrow=none;html=1;rounded=0;endFill=0;startArrow=async;startFill=1;" edge="1" parent="1">
          <mxGeometry width="50" height="50" relative="1" as="geometry">
            <mxPoint x="540" y="524.83" as="sourcePoint" />
            <mxPoint x="600" y="524.83" as="targetPoint" />
          </mxGeometry>
        </mxCell>
        <mxCell id="l3dyAakRDhR8vBtT_rwc-61" value="control logic" style="ellipse;whiteSpace=wrap;html=1;fillColor=#e3c800;fontColor=#000000;strokeColor=#B09500;fontSize=16;" vertex="1" parent="1">
          <mxGeometry x="1290" y="550" width="240" height="80" as="geometry" />
        </mxCell>
        <mxCell id="l3dyAakRDhR8vBtT_rwc-62" value="" style="endArrow=none;html=1;rounded=0;endFill=0;startArrow=async;startFill=1;" edge="1" parent="1">
          <mxGeometry width="50" height="50" relative="1" as="geometry">
            <mxPoint x="1530" y="589.76" as="sourcePoint" />
            <mxPoint x="1590" y="589.76" as="targetPoint" />
          </mxGeometry>
        </mxCell>
        <mxCell id="l3dyAakRDhR8vBtT_rwc-63" value="MW-E" style="text;html=1;align=left;verticalAlign=middle;resizable=0;points=[];autosize=1;strokeColor=none;fillColor=none;fontSize=13;" vertex="1" parent="1">
          <mxGeometry x="1600" y="575" width="60" height="30" as="geometry" />
        </mxCell>
        <mxCell id="l3dyAakRDhR8vBtT_rwc-65" style="edgeStyle=orthogonalEdgeStyle;rounded=0;orthogonalLoop=1;jettySize=auto;html=1;entryX=1;entryY=0.222;entryDx=0;entryDy=0;entryPerimeter=0;shape=flexArrow;fillColor=#f5f5f5;strokeColor=#666666;" edge="1" parent="1" source="l3dyAakRDhR8vBtT_rwc-64" target="l3dyAakRDhR8vBtT_rwc-47">
          <mxGeometry relative="1" as="geometry" />
        </mxCell>
        <mxCell id="l3dyAakRDhR8vBtT_rwc-66" style="edgeStyle=orthogonalEdgeStyle;rounded=0;orthogonalLoop=1;jettySize=auto;html=1;entryX=0.375;entryY=0;entryDx=0;entryDy=0;entryPerimeter=0;fillColor=#f5f5f5;strokeColor=#666666;shape=flexArrow;" edge="1" parent="1" source="l3dyAakRDhR8vBtT_rwc-64" target="l3dyAakRDhR8vBtT_rwc-48">
          <mxGeometry relative="1" as="geometry" />
        </mxCell>
        <mxCell id="l3dyAakRDhR8vBtT_rwc-64" value="controller" style="rounded=1;whiteSpace=wrap;html=1;fillColor=#647687;fontColor=#ffffff;strokeColor=#314354;" vertex="1" parent="1">
          <mxGeometry x="980" y="510" width="150" height="80" as="geometry" />
        </mxCell>
        <mxCell id="l3dyAakRDhR8vBtT_rwc-67" value="" style="endArrow=openAsync;html=1;rounded=0;endFill=0;" edge="1" parent="1">
          <mxGeometry width="50" height="50" relative="1" as="geometry">
            <mxPoint x="1130" y="534.66" as="sourcePoint" />
            <mxPoint x="1180" y="534.66" as="targetPoint" />
          </mxGeometry>
        </mxCell>
        <mxCell id="l3dyAakRDhR8vBtT_rwc-68" value="" style="endArrow=openAsync;html=1;rounded=0;endFill=0;" edge="1" parent="1">
          <mxGeometry width="50" height="50" relative="1" as="geometry">
            <mxPoint x="1130" y="564.66" as="sourcePoint" />
            <mxPoint x="1180" y="564.66" as="targetPoint" />
            <Array as="points">
              <mxPoint x="1160" y="564.66" />
            </Array>
          </mxGeometry>
        </mxCell>
        <mxCell id="l3dyAakRDhR8vBtT_rwc-69" value="MW" style="text;html=1;align=left;verticalAlign=middle;resizable=0;points=[];autosize=1;strokeColor=none;fillColor=none;fontSize=13;" vertex="1" parent="1">
          <mxGeometry x="1190" y="520" width="50" height="30" as="geometry" />
        </mxCell>
        <mxCell id="l3dyAakRDhR8vBtT_rwc-70" value="MW-E" style="text;html=1;align=left;verticalAlign=middle;resizable=0;points=[];autosize=1;strokeColor=none;fillColor=none;fontSize=13;" vertex="1" parent="1">
          <mxGeometry x="1190" y="550" width="60" height="30" as="geometry" />
        </mxCell>
        <mxCell id="l3dyAakRDhR8vBtT_rwc-71" value="RAM loader | functional diagram" style="text;html=1;align=center;verticalAlign=middle;resizable=0;points=[];autosize=1;strokeColor=none;fillColor=none;fontStyle=1;fontSize=32;" vertex="1" parent="1">
          <mxGeometry x="635" y="80" width="510" height="50" as="geometry" />
        </mxCell>
        <mxCell id="l3dyAakRDhR8vBtT_rwc-72" value="" style="rounded=0;whiteSpace=wrap;html=1;fillColor=none;strokeWidth=2;" vertex="1" parent="1">
          <mxGeometry x="490" y="60" width="800" height="90" as="geometry" />
        </mxCell>
      </root>
    </mxGraphModel>
  </diagram>
</mxfile>
